<?xml version="1.0" encoding="utf-8"?>
<svg xmlns="http://www.w3.org/2000/svg" xmlns:xlink="http://www.w3.org/1999/xlink" width="564" height="423" viewBox="0 0 564 423">
<defs>
  <clipPath id="clip00">
    <rect x="56" y="28" width="480" height="339"/>
  </clipPath>
</defs>
<defs>
  <clipPath id="clip01">
    <rect x="0" y="0" width="564" height="423"/>
  </clipPath>
</defs>
<polyline clip-path="url(#clip01)" style="stroke:#ededed; stroke-opacity:1; fill:none" points="
  56.4,359.08 535.8,359.08 
  "/>
<polyline clip-path="url(#clip01)" style="stroke:#ededed; stroke-opacity:1; fill:none" points="
  56.4,344.04 535.8,344.04 
  "/>
<polyline clip-path="url(#clip01)" style="stroke:#cccccc; stroke-opacity:1; fill:none" points="
  56.4,329 535.8,329 
  "/>
<polyline clip-path="url(#clip01)" style="stroke:#ededed; stroke-opacity:1; fill:none" points="
  56.4,313.96 535.8,313.96 
  "/>
<polyline clip-path="url(#clip01)" style="stroke:#ededed; stroke-opacity:1; fill:none" points="
  56.4,298.92 535.8,298.92 
  "/>
<polyline clip-path="url(#clip01)" style="stroke:#ededed; stroke-opacity:1; fill:none" points="
  56.4,283.88 535.8,283.88 
  "/>
<polyline clip-path="url(#clip01)" style="stroke:#ededed; stroke-opacity:1; fill:none" points="
  56.4,268.84 535.8,268.84 
  "/>
<polyline clip-path="url(#clip01)" style="stroke:#cccccc; stroke-opacity:1; fill:none" points="
  56.4,253.8 535.8,253.8 
  "/>
<polyline clip-path="url(#clip01)" style="stroke:#ededed; stroke-opacity:1; fill:none" points="
  56.4,238.76 535.8,238.76 
  "/>
<polyline clip-path="url(#clip01)" style="stroke:#ededed; stroke-opacity:1; fill:none" points="
  56.4,223.72 535.8,223.72 
  "/>
<polyline clip-path="url(#clip01)" style="stroke:#ededed; stroke-opacity:1; fill:none" points="
  56.4,208.68 535.8,208.68 
  "/>
<polyline clip-path="url(#clip01)" style="stroke:#ededed; stroke-opacity:1; fill:none" points="
  56.4,193.64 535.8,193.64 
  "/>
<polyline clip-path="url(#clip01)" style="stroke:#cccccc; stroke-opacity:1; fill:none" points="
  56.4,178.6 535.8,178.6 
  "/>
<polyline clip-path="url(#clip01)" style="stroke:#ededed; stroke-opacity:1; fill:none" points="
  56.4,163.56 535.8,163.56 
  "/>
<polyline clip-path="url(#clip01)" style="stroke:#ededed; stroke-opacity:1; fill:none" points="
  56.4,148.52 535.8,148.52 
  "/>
<polyline clip-path="url(#clip01)" style="stroke:#ededed; stroke-opacity:1; fill:none" points="
  56.4,133.48 535.8,133.48 
  "/>
<polyline clip-path="url(#clip01)" style="stroke:#ededed; stroke-opacity:1; fill:none" points="
  56.4,118.44 535.8,118.44 
  "/>
<polyline clip-path="url(#clip01)" style="stroke:#cccccc; stroke-opacity:1; fill:none" points="
  56.4,103.4 535.8,103.4 
  "/>
<polyline clip-path="url(#clip01)" style="stroke:#ededed; stroke-opacity:1; fill:none" points="
  56.4,88.36 535.8,88.36 
  "/>
<polyline clip-path="url(#clip01)" style="stroke:#ededed; stroke-opacity:1; fill:none" points="
  56.4,73.32 535.8,73.32 
  "/>
<polyline clip-path="url(#clip01)" style="stroke:#ededed; stroke-opacity:1; fill:none" points="
  56.4,58.28 535.8,58.28 
  "/>
<polyline clip-path="url(#clip01)" style="stroke:#ededed; stroke-opacity:1; fill:none" points="
  56.4,43.24 535.8,43.24 
  "/>
<polyline clip-path="url(#clip01)" style="stroke:#cccccc; stroke-opacity:1; fill:none" points="
  56.4,28.2 535.8,28.2 
  "/>
<polyline clip-path="url(#clip01)" style="stroke:#ededed; stroke-opacity:1; fill:none" points="
  75.576,366.6 75.576,28.2 
  "/>
<polyline clip-path="url(#clip01)" style="stroke:#ededed; stroke-opacity:1; fill:none" points="
  94.752,366.6 94.752,28.2 
  "/>
<polyline clip-path="url(#clip01)" style="stroke:#ededed; stroke-opacity:1; fill:none" points="
  113.928,366.6 113.928,28.2 
  "/>
<polyline clip-path="url(#clip01)" style="stroke:#ededed; stroke-opacity:1; fill:none" points="
  133.104,366.6 133.104,28.2 
  "/>
<polyline clip-path="url(#clip01)" style="stroke:#cccccc; stroke-opacity:1; fill:none" points="
  152.28,366.6 152.28,28.2 
  "/>
<polyline clip-path="url(#clip01)" style="stroke:#ededed; stroke-opacity:1; fill:none" points="
  171.456,366.6 171.456,28.2 
  "/>
<polyline clip-path="url(#clip01)" style="stroke:#ededed; stroke-opacity:1; fill:none" points="
  190.632,366.6 190.632,28.2 
  "/>
<polyline clip-path="url(#clip01)" style="stroke:#ededed; stroke-opacity:1; fill:none" points="
  209.808,366.6 209.808,28.2 
  "/>
<polyline clip-path="url(#clip01)" style="stroke:#ededed; stroke-opacity:1; fill:none" points="
  228.984,366.6 228.984,28.2 
  "/>
<polyline clip-path="url(#clip01)" style="stroke:#cccccc; stroke-opacity:1; fill:none" points="
  248.16,366.6 248.16,28.2 
  "/>
<polyline clip-path="url(#clip01)" style="stroke:#ededed; stroke-opacity:1; fill:none" points="
  267.336,366.6 267.336,28.2 
  "/>
<polyline clip-path="url(#clip01)" style="stroke:#ededed; stroke-opacity:1; fill:none" points="
  286.512,366.6 286.512,28.2 
  "/>
<polyline clip-path="url(#clip01)" style="stroke:#ededed; stroke-opacity:1; fill:none" points="
  305.688,366.6 305.688,28.2 
  "/>
<polyline clip-path="url(#clip01)" style="stroke:#ededed; stroke-opacity:1; fill:none" points="
  324.864,366.6 324.864,28.2 
  "/>
<polyline clip-path="url(#clip01)" style="stroke:#cccccc; stroke-opacity:1; fill:none" points="
  344.04,366.6 344.04,28.2 
  "/>
<polyline clip-path="url(#clip01)" style="stroke:#ededed; stroke-opacity:1; fill:none" points="
  363.216,366.6 363.216,28.2 
  "/>
<polyline clip-path="url(#clip01)" style="stroke:#ededed; stroke-opacity:1; fill:none" points="
  382.392,366.6 382.392,28.2 
  "/>
<polyline clip-path="url(#clip01)" style="stroke:#ededed; stroke-opacity:1; fill:none" points="
  401.568,366.6 401.568,28.2 
  "/>
<polyline clip-path="url(#clip01)" style="stroke:#ededed; stroke-opacity:1; fill:none" points="
  420.744,366.6 420.744,28.2 
  "/>
<polyline clip-path="url(#clip01)" style="stroke:#cccccc; stroke-opacity:1; fill:none" points="
  439.92,366.6 439.92,28.2 
  "/>
<polyline clip-path="url(#clip01)" style="stroke:#ededed; stroke-opacity:1; fill:none" points="
  459.096,366.6 459.096,28.2 
  "/>
<polyline clip-path="url(#clip01)" style="stroke:#ededed; stroke-opacity:1; fill:none" points="
  478.272,366.6 478.272,28.2 
  "/>
<polyline clip-path="url(#clip01)" style="stroke:#ededed; stroke-opacity:1; fill:none" points="
  497.448,366.6 497.448,28.2 
  "/>
<polyline clip-path="url(#clip01)" style="stroke:#ededed; stroke-opacity:1; fill:none" points="
  516.624,366.6 516.624,28.2 
  "/>
<polyline clip-path="url(#clip01)" style="stroke:#cccccc; stroke-opacity:1; fill:none" points="
  535.8,366.6 535.8,28.2 
  "/>
<g clip-path="url(#clip01)">
<text style="fill:#000000; font-family:Arial; font-size:14; text-anchor:start;" transform="rotate(0, 42.6647, 370.61)" x="42.6647" y="370.61">0</text>
</g>
<g clip-path="url(#clip01)">
<text style="fill:#000000; font-family:Arial; font-size:14; text-anchor:start;" transform="rotate(0, 19.4362, 295.41)" x="19.4362" y="295.41">2000</text>
</g>
<g clip-path="url(#clip01)">
<text style="fill:#000000; font-family:Arial; font-size:14; text-anchor:start;" transform="rotate(0, 19.4362, 220.21)" x="19.4362" y="220.21">4000</text>
</g>
<g clip-path="url(#clip01)">
<text style="fill:#000000; font-family:Arial; font-size:14; text-anchor:start;" transform="rotate(0, 19.4362, 145.01)" x="19.4362" y="145.01">6000</text>
</g>
<g clip-path="url(#clip01)">
<text style="fill:#000000; font-family:Arial; font-size:14; text-anchor:start;" transform="rotate(0, 19.4362, 69.81)" x="19.4362" y="69.81">8000</text>
</g>
<polyline clip-path="url(#clip01)" style="stroke:#000000; stroke-opacity:1; fill:none" points="
  56.4,366.6 56.4,366.6 68.385,366.6 56.4,366.6 56.4,351.56 62.3925,351.56 56.4,351.56 56.4,336.52 62.3925,336.52 56.4,336.52 
  56.4,321.48 62.3925,321.48 56.4,321.48 56.4,306.44 62.3925,306.44 56.4,306.44 56.4,291.4 68.385,291.4 56.4,291.4 56.4,276.36 
  62.3925,276.36 56.4,276.36 56.4,261.32 62.3925,261.32 56.4,261.32 56.4,246.28 62.3925,246.28 56.4,246.28 56.4,231.24 62.3925,231.24 
  56.4,231.24 56.4,216.2 68.385,216.2 56.4,216.2 56.4,201.16 62.3925,201.16 56.4,201.16 56.4,186.12 62.3925,186.12 56.4,186.12 
  56.4,171.08 62.3925,171.08 56.4,171.08 56.4,156.04 62.3925,156.04 56.4,156.04 56.4,141 68.385,141 56.4,141 56.4,125.96 
  62.3925,125.96 56.4,125.96 56.4,110.92 62.3925,110.92 56.4,110.92 56.4,95.88 62.3925,95.88 56.4,95.88 56.4,80.84 62.3925,80.84 
  56.4,80.84 56.4,65.8 68.385,65.8 56.4,65.8 56.4,50.76 62.3925,50.76 56.4,50.76 56.4,35.72 62.3925,35.72 56.4,35.72 
  56.4,28.2 
  "/>
<g clip-path="url(#clip01)">
<text style="fill:#000000; font-family:Arial; font-size:14; text-anchor:start;" transform="rotate(0, 52.5286, 385.181)" x="52.5286" y="385.181">0</text>
</g>
<g clip-path="url(#clip01)">
<text style="fill:#000000; font-family:Arial; font-size:14; text-anchor:start;" transform="rotate(0, 144.537, 385.181)" x="144.537" y="385.181">20</text>
</g>
<g clip-path="url(#clip01)">
<text style="fill:#000000; font-family:Arial; font-size:14; text-anchor:start;" transform="rotate(0, 240.417, 385.181)" x="240.417" y="385.181">40</text>
</g>
<g clip-path="url(#clip01)">
<text style="fill:#000000; font-family:Arial; font-size:14; text-anchor:start;" transform="rotate(0, 336.297, 385.181)" x="336.297" y="385.181">60</text>
</g>
<g clip-path="url(#clip01)">
<text style="fill:#000000; font-family:Arial; font-size:14; text-anchor:start;" transform="rotate(0, 432.177, 385.181)" x="432.177" y="385.181">80</text>
</g>
<g clip-path="url(#clip01)">
<text style="fill:#000000; font-family:Arial; font-size:14; text-anchor:start;" transform="rotate(0, 524.186, 385.181)" x="524.186" y="385.181">100</text>
</g>
<polyline clip-path="url(#clip01)" style="stroke:#000000; stroke-opacity:1; fill:none" points="
  56.4,366.6 56.4,366.6 56.4,354.615 56.4,366.6 75.576,366.6 75.576,360.608 75.576,366.6 94.752,366.6 94.752,360.608 94.752,366.6 
  113.928,366.6 113.928,360.608 113.928,366.6 133.104,366.6 133.104,360.608 133.104,366.6 152.28,366.6 152.28,354.615 152.28,366.6 171.456,366.6 
  171.456,360.608 171.456,366.6 190.632,366.6 190.632,360.608 190.632,366.6 209.808,366.6 209.808,360.608 209.808,366.6 228.984,366.6 228.984,360.608 
  228.984,366.6 248.16,366.6 248.16,354.615 248.16,366.6 267.336,366.6 267.336,360.608 267.336,366.6 286.512,366.6 286.512,360.608 286.512,366.6 
  305.688,366.6 305.688,360.608 305.688,366.6 324.864,366.6 324.864,360.608 324.864,366.6 344.04,366.6 344.04,354.615 344.04,366.6 363.216,366.6 
  363.216,360.608 363.216,366.6 382.392,366.6 382.392,360.608 382.392,366.6 401.568,366.6 401.568,360.608 401.568,366.6 420.744,366.6 420.744,360.608 
  420.744,366.6 439.92,366.6 439.92,354.615 439.92,366.6 459.096,366.6 459.096,360.608 459.096,366.6 478.272,366.6 478.272,360.608 478.272,366.6 
  497.448,366.6 497.448,360.608 497.448,366.6 516.624,366.6 516.624,360.608 516.624,366.6 535.8,366.6 535.8,354.615 535.8,366.6 
  
  "/>
<polyline clip-path="url(#clip01)" style="stroke:#000000; stroke-opacity:1; fill:none" points="
  535.8,366.6 535.8,366.6 523.815,366.6 535.8,366.6 535.8,351.56 529.808,351.56 535.8,351.56 535.8,336.52 529.808,336.52 535.8,336.52 
  535.8,321.48 529.808,321.48 535.8,321.48 535.8,306.44 529.808,306.44 535.8,306.44 535.8,291.4 523.815,291.4 535.8,291.4 535.8,276.36 
  529.808,276.36 535.8,276.36 535.8,261.32 529.808,261.32 535.8,261.32 535.8,246.28 529.808,246.28 535.8,246.28 535.8,231.24 529.808,231.24 
  535.8,231.24 535.8,216.2 523.815,216.2 535.8,216.2 535.8,201.16 529.808,201.16 535.8,201.16 535.8,186.12 529.808,186.12 535.8,186.12 
  535.8,171.08 529.808,171.08 535.8,171.08 535.8,156.04 529.808,156.04 535.8,156.04 535.8,141 523.815,141 535.8,141 535.8,125.96 
  529.808,125.96 535.8,125.96 535.8,110.92 529.808,110.92 535.8,110.92 535.8,95.88 529.808,95.88 535.8,95.88 535.8,80.84 529.808,80.84 
  535.8,80.84 535.8,65.8 523.815,65.8 535.8,65.8 535.8,50.76 529.808,50.76 535.8,50.76 535.8,35.72 529.808,35.72 535.8,35.72 
  535.8,28.2 
  "/>
<polyline clip-path="url(#clip01)" style="stroke:#000000; stroke-opacity:1; fill:none" points="
  56.4,28.2 56.4,28.2 56.4,40.185 56.4,28.2 75.576,28.2 75.576,34.1925 75.576,28.2 94.752,28.2 94.752,34.1925 94.752,28.2 
  113.928,28.2 113.928,34.1925 113.928,28.2 133.104,28.2 133.104,34.1925 133.104,28.2 152.28,28.2 152.28,40.185 152.28,28.2 171.456,28.2 
  171.456,34.1925 171.456,28.2 190.632,28.2 190.632,34.1925 190.632,28.2 209.808,28.2 209.808,34.1925 209.808,28.2 228.984,28.2 228.984,34.1925 
  228.984,28.2 248.16,28.2 248.16,40.185 248.16,28.2 267.336,28.2 267.336,34.1925 267.336,28.2 286.512,28.2 286.512,34.1925 286.512,28.2 
  305.688,28.2 305.688,34.1925 305.688,28.2 324.864,28.2 324.864,34.1925 324.864,28.2 344.04,28.2 344.04,40.185 344.04,28.2 363.216,28.2 
  363.216,34.1925 363.216,28.2 382.392,28.2 382.392,34.1925 382.392,28.2 401.568,28.2 401.568,34.1925 401.568,28.2 420.744,28.2 420.744,34.1925 
  420.744,28.2 439.92,28.2 439.92,40.185 439.92,28.2 459.096,28.2 459.096,34.1925 459.096,28.2 478.272,28.2 478.272,34.1925 478.272,28.2 
  497.448,28.2 497.448,34.1925 497.448,28.2 516.624,28.2 516.624,34.1925 516.624,28.2 535.8,28.2 535.8,40.185 535.8,28.2 
  
  "/>
<polyline clip-path="url(#clip00)" style="stroke:#000000; stroke-opacity:1; fill:none" points="
  56.4,366.598 71.9187,366.552 78.0707,366.427 84.1756,366.552 90.2015,366.43 99.9883,366.578 111.03,366.379 112.496,366.437 112.69,366.431 136.041,366.599 
  159.272,366.435 160.797,366.373 161.255,366.394 163.152,366.294 163.155,366.294 167.266,365.878 167.554,365.92 168.069,365.843 168.208,365.865 168.669,365.791 
  169.666,365.943 170.59,365.803 171.225,365.902 172.295,365.727 172.598,365.78 173.664,365.576 175.349,365.88 175.371,365.876 175.476,365.892 176.53,365.718 
  176.542,365.72 176.675,365.695 177.922,365.903 178.638,365.79 178.909,365.835 180.672,365.495 181.241,365.618 182.199,365.401 182.386,365.447 184.065,364.964 
  185.048,365.267 186.103,364.939 186.722,365.14 186.732,365.137 186.827,365.166 187.506,364.948 188,365.109 188.136,365.066 189.104,365.347 191.022,364.73 
  191.964,365.064 192.599,364.847 192.751,364.902 193.321,364.687 196.217,365.554 197.315,365.285 197.739,365.396 198.641,365.147 199.965,365.498 200.285,365.422 
  200.494,365.473 202.341,364.943 202.439,364.976 203.759,364.462 203.83,364.493 203.974,364.429 204.412,364.619 204.9,364.406 207.196,365.241 207.257,365.224 
  207.838,365.381 211.506,363.98 212.204,364.335 213.914,363.364 215.574,364.312 215.6,364.299 216.284,364.605 218.145,363.659 219.431,364.351 219.727,364.208 
  220.27,364.465 222,363.536 222.329,363.74 223.997,362.549 225.834,363.838 225.864,363.821 225.911,363.848 228.738,361.636 229.222,362.113 229.597,361.748 
  230.333,360.943 230.462,361.092 232.301,358.516 235.11,362.1 235.205,362.01 236.885,363.366 238.018,362.504 239.729,363.733 241.692,362.283 245.163,364.507 
  247.892,362.902 250.113,364.273 250.49,364.083 250.554,364.116 251.792,363.384 256.794,357.472 257.052,357.951 258.96,353.724 260.588,348.516 261.377,351.261 
  262.872,345.648 265.193,353.69 265.522,352.773 266.164,354.505 267.897,349.236 268.314,350.685 270.316,342.436 270.694,344.265 270.906,343.252 271.059,343.982 
  271.088,343.844 271.109,343.945 271.734,340.791 272.144,342.906 272.782,339.532 275.462,351.124 277.109,344.779 277.231,344.218 277.526,345.555 278.234,342.207 
  278.858,345.184 279.408,342.581 280.187,346.181 280.188,346.175 281.307,350.426 281.528,349.663 281.934,351.04 282.031,350.722 283.03,353.708 283.104,353.506 
  285.255,358.239 287.085,354.354 287.813,356.081 292.629,337.875 292.898,339.438 293.088,338.338 293.83,342.393 296.514,324.23 296.796,326.649 298.224,312.782 
  299.589,326.113 299.719,325 300.626,332.173 302.631,314.3 303.462,322.621 303.901,318.401 304.147,320.814 306.104,297.741 306.259,299.938 306.804,291.913 
  307.082,296.12 309.482,250.313 310.418,270.923 311.323,251.03 311.922,264.602 312.518,251.095 312.923,260.449 315.982,165.671 316.236,176.018 318.766,43.4835 
  325.271,283.396 325.429,280.599 326.342,295.513 326.472,293.553 326.488,293.79 326.493,293.712 326.92,299.926 327.503,291.315 327.975,298.38 328.322,293.266 
  329.738,312.027 330.047,308.398 330.136,309.465 330.794,301.055 331.293,307.537 331.488,305.084 331.532,305.648 332.494,292.102 332.532,292.68 332.603,291.573 
  334.57,316.821 335.51,306.029 337.687,328.135 338.231,323.512 338.436,325.316 339.957,309.9 340.314,313.966 340.775,308.654 341.883,320.607 343.15,306.691 
  343.359,309.246 343.451,308.133 343.537,309.174 343.695,307.245 344.242,313.647 346.12,288.267 346.443,293.386 347.484,275.634 347.726,280.101 348.036,274.32 
  348.29,279.093 350.15,237.627 352.7,290.837 354.274,261.401 354.603,268.373 354.649,267.408 354.735,269.169 355.817,244.507 357.028,271.752 357.67,258.15 
  358.111,267.671 359.179,242.963 360.768,277.841 361.067,272.143 362.363,294.517 363.836,268.578 365.342,294.997 366.403,277.254 367.08,289.02 369.763,230.821 
  371.157,265.067 372.056,244.121 372.183,247.325 372.769,231.798 374.625,275.062 375.001,267.596 376.595,295.6 377.335,283.743 377.986,294.257 379.772,261.594 
  380.023,266.953 380.207,263.061 381.561,288.544 382.107,279.128 383.714,304.033 385.187,281.513 385.951,294.043 386.116,291.508 386.454,296.625 388.61,256.89 
  390.85,297.845 391.638,285.57 393.735,314.282 395.101,327.253 395.309,325.505 396.463,334.297 397.58,325.824 397.839,327.971 398.333,323.779 399.651,334.073 
  401.77,315.993 401.83,316.624 404.569,278.109 404.734,281.094 404.824,279.469 405.009,282.772 405.25,278.466 406.198,294.292 407.829,264.988 408.142,271.407 
  408.703,259.587 409.422,274.488 410.606,248.694 410.763,252.498 410.764,252.481 412.545,287.893 412.545,287.887 412.92,293.8 413.365,286.715 414.542,304.109 
  415.128,295.988 415.564,302.128 415.961,296.566 416.215,300.186 416.465,296.628 416.839,301.88 417.382,294.126 418.809,312.789 420.456,290.738 422.36,315.603 
  422.771,311.038 424.846,330.563 425.187,333.039 425.51,330.704 425.743,332.404 426.423,327.189 427.244,333.394 427.941,328.201 428.552,332.793 428.634,332.203 
  429.046,335.036 430.543,323.466 433.776,344.622 434.157,342.805 434.594,344.879 435.168,342.113 436.442,347.827 437.257,344.351 437.568,345.749 437.957,343.986 
  438.804,347.648 441.503,333.326 441.522,333.46 442.333,327.35 443.937,338.508 444.239,336.677 444.879,340.417 446.504,329.855 446.603,330.609 448.21,316.276 
  448.257,316.76 448.754,311.308 450.183,325.558 450.986,318.078 451.871,326.263 453.371,311.447 454.078,319.007 454.513,314.484 454.589,315.301 455.219,308.097 
  455.405,310.331 456.564,294.949 456.58,295.182 457.31,283.43 457.598,288.285 457.896,283.256 459.168,302.671 459.515,297.864 459.796,301.776 463.072,238.226 
  463.948,259.68 465.309,224.593 465.351,225.839 465.539,220.209 465.923,231.47 466.301,220.385 467.757,258.693 468.642,236.828 469.363,254.944 470.478,225.712 
  473.468,291.101 473.837,285.059 474.068,288.895 474.819,275.726 476.769,306.09 478.753,275.059 479.668,290.965 480.418,278.159 480.75,284.081 481.466,270.801 
  483.122,298.788 484.931,267.708 485.89,285.648 487.782,246.493 487.963,250.94 489.161,218.099 492.206,287.926 495.861,197.969 496.852,229.441 499.323,136.945 
  501.45,219.262 502.481,183.945 502.845,197.332 503.172,185.398 504.081,216.699 504.401,206.368 506.891,271.291 507.537,257.553 508.97,285.733 509.082,283.818 
  509.691,293.686 509.693,293.648 510.551,305.606 510.682,303.916 511.256,310.99 514.693,252.711 516.219,283.769 517.149,266.047 517.463,272.424 518.206,256.637 
  521.184,307.515 521.501,303.478 522.16,311.585 522.544,306.987 522.648,308.258 523.526,296.526 523.956,302.533 524.573,293.731 525.309,304.104 526.032,293.938 
  527.067,308.048 527.356,304.407 527.528,306.606 527.65,305.058 528.267,312.487 528.414,310.807 529.47,321.84 529.848,318.172 532.641,339.56 533.359,335.192 
  534.823,343.455 
  "/>
<polyline clip-path="url(#clip00)" style="stroke:#c0001f; stroke-opacity:1; fill:none" points="
  56.4,366.6 71.9187,366.6 78.0707,366.6 84.1756,366.6 90.2015,366.6 99.9883,366.6 111.03,366.6 112.496,366.6 112.69,366.6 136.041,366.6 
  159.272,366.6 160.797,366.6 161.255,366.6 163.152,366.6 163.155,366.6 167.266,366.6 167.554,366.6 168.069,366.6 168.208,366.6 168.669,366.6 
  169.666,366.6 170.59,366.6 171.225,366.6 172.295,366.6 172.598,366.6 173.664,366.6 175.349,366.6 175.371,366.6 175.476,366.6 176.53,366.6 
  176.542,366.6 176.675,366.6 177.922,366.6 178.638,366.6 178.909,366.6 180.672,366.6 181.241,366.6 182.199,366.6 182.386,366.6 184.065,366.6 
  185.048,366.6 186.103,366.6 186.722,366.6 186.732,366.6 186.827,366.6 187.506,366.6 188,366.6 188.136,366.6 189.104,366.6 191.022,366.6 
  191.964,366.6 192.599,366.6 192.751,366.6 193.321,366.6 196.217,366.6 197.315,366.6 197.739,366.6 198.641,366.6 199.965,366.6 200.285,366.6 
  200.494,366.6 202.341,366.6 202.439,366.6 203.759,366.6 203.83,366.6 203.974,366.6 204.412,366.6 204.9,366.6 207.196,366.6 207.257,366.6 
  207.838,366.6 211.506,366.6 212.204,366.6 213.914,366.6 215.574,366.6 215.6,366.6 216.284,366.6 218.145,366.6 219.431,366.6 219.727,366.6 
  220.27,366.6 222,366.6 222.329,366.6 223.997,366.6 225.834,366.6 225.864,366.6 225.911,366.6 228.738,366.6 229.222,366.6 229.597,366.6 
  230.333,366.6 230.462,366.6 232.301,366.6 235.11,366.6 235.205,366.6 236.885,366.6 238.018,366.6 239.729,366.6 241.692,366.6 245.163,366.6 
  247.892,366.6 250.113,366.6 250.49,366.6 250.554,366.6 251.792,366.6 256.794,366.6 257.052,366.6 258.96,366.6 260.588,366.6 261.377,366.6 
  262.872,366.6 265.193,366.6 265.522,366.6 266.164,366.6 267.897,366.6 268.314,366.6 270.316,366.6 270.694,366.6 270.906,366.6 271.059,366.6 
  271.088,366.6 271.109,366.6 271.734,366.6 272.144,366.6 272.782,366.6 275.462,366.6 277.109,366.6 277.231,366.6 277.526,366.6 278.234,366.6 
  278.858,366.6 279.408,366.6 280.187,366.6 280.188,366.6 281.307,366.6 281.528,366.6 281.934,366.6 282.031,366.6 283.03,366.6 283.104,366.6 
  285.255,366.6 287.085,366.6 287.813,366.6 292.629,366.6 292.898,366.6 293.088,366.6 293.83,366.6 296.514,366.6 296.796,366.6 298.224,366.6 
  299.589,366.6 299.719,366.6 300.626,366.6 302.631,366.6 303.462,366.6 303.901,366.6 304.147,366.6 306.104,366.6 306.259,366.6 306.804,366.6 
  307.082,366.6 309.482,366.6 310.418,366.6 311.323,366.6 311.922,366.6 312.518,366.6 312.923,366.6 315.982,366.6 316.236,366.6 318.766,366.6 
  325.271,366.6 325.429,366.6 326.342,366.6 326.472,366.6 326.488,366.6 326.493,366.6 326.92,366.6 327.503,366.6 327.975,366.6 328.322,366.6 
  329.738,366.6 330.047,366.6 330.136,366.6 330.794,366.6 331.293,366.6 331.488,366.6 331.532,366.6 332.494,366.6 332.532,366.6 332.603,366.6 
  334.57,366.6 335.51,366.6 337.687,366.6 338.231,366.6 338.436,366.6 339.957,366.6 340.314,366.6 340.775,366.6 341.883,366.6 343.15,366.6 
  343.359,366.6 343.451,366.6 343.537,366.6 343.695,366.6 344.242,366.6 346.12,366.6 346.443,366.6 347.484,366.6 347.726,366.6 348.036,366.6 
  348.29,366.6 350.15,366.6 352.7,366.6 354.274,366.6 354.603,366.6 354.649,366.6 354.735,366.6 355.817,366.6 357.028,366.6 357.67,366.6 
  358.111,366.6 359.179,366.6 360.768,366.6 361.067,366.6 362.363,366.6 363.836,366.6 365.342,366.6 366.403,366.6 367.08,366.6 369.763,366.6 
  371.157,366.6 372.056,366.6 372.183,366.6 372.769,366.6 374.625,366.6 375.001,366.6 376.595,366.6 377.335,366.6 377.986,366.6 379.772,366.6 
  380.023,366.6 380.207,366.6 381.561,366.6 382.107,366.6 383.714,366.6 385.187,366.6 385.951,366.6 386.116,366.6 386.454,366.6 388.61,366.6 
  390.85,366.6 391.638,366.6 393.735,366.6 395.101,366.6 395.309,366.6 396.463,366.6 397.58,366.6 397.839,366.6 398.333,366.6 399.651,366.6 
  401.77,366.6 401.83,366.6 404.569,366.6 404.734,366.6 404.824,366.6 405.009,366.6 405.25,366.6 406.198,366.6 407.829,366.6 408.142,366.6 
  408.703,366.6 409.422,366.6 410.606,366.6 410.763,366.6 410.764,366.6 412.545,366.6 412.545,366.6 412.92,366.6 413.365,366.6 414.542,366.6 
  415.128,366.6 415.564,366.6 415.961,366.6 416.215,366.6 416.465,366.6 416.839,366.6 417.382,366.6 418.809,366.6 420.456,366.6 422.36,366.6 
  422.771,366.6 424.846,366.6 425.187,366.6 425.51,366.6 425.743,366.6 426.423,366.6 427.244,366.6 427.941,366.6 428.552,366.6 428.634,366.6 
  429.046,366.6 430.543,366.6 433.776,366.6 434.157,366.6 434.594,366.6 435.168,366.6 436.442,366.6 437.257,366.6 437.568,366.6 437.957,366.6 
  438.804,366.6 441.503,366.6 441.522,366.6 442.333,366.6 443.937,366.6 444.239,366.6 444.879,366.6 446.504,366.6 446.603,366.6 448.21,366.6 
  448.257,366.6 448.754,366.6 450.183,366.6 450.986,366.6 451.871,366.6 453.371,366.6 454.078,366.6 454.513,366.6 454.589,366.6 455.219,366.6 
  455.405,366.6 456.564,366.6 456.58,366.6 457.31,366.6 457.598,366.6 457.896,366.6 459.168,366.6 459.515,366.6 459.796,366.6 463.072,366.6 
  463.948,366.6 465.309,366.6 465.351,366.6 465.539,366.6 465.923,366.6 466.301,366.6 467.757,366.6 468.642,366.6 469.363,366.6 470.478,366.6 
  473.468,366.6 473.837,366.6 474.068,366.6 474.819,366.6 476.769,366.6 478.753,366.6 479.668,366.6 480.418,366.6 480.75,366.6 481.466,366.6 
  483.122,366.6 484.931,366.6 485.89,366.6 487.782,366.6 487.963,366.6 489.161,366.6 492.206,366.6 495.861,366.6 496.852,366.6 499.323,366.6 
  501.45,366.6 502.481,366.6 502.845,366.6 503.172,366.6 504.081,366.6 504.401,366.6 506.891,366.6 507.537,366.6 508.97,366.6 509.082,366.6 
  509.691,366.6 509.693,366.6 510.551,366.6 510.682,366.6 511.256,366.6 514.693,366.6 516.219,366.6 517.149,366.6 517.463,366.6 518.206,366.6 
  521.184,366.6 521.501,366.6 522.16,366.6 522.544,366.6 522.648,366.6 523.526,366.6 523.956,366.6 524.573,366.6 525.309,366.6 526.032,366.6 
  527.067,366.6 527.356,366.6 527.528,366.6 527.65,366.6 528.267,366.6 528.414,366.6 529.47,366.6 529.848,366.6 532.641,366.6 533.359,366.6 
  534.823,366.6 
  "/>
<g clip-path="url(#clip01)">
<text style="fill:#000000; font-family:Arial; font-size:21; text-anchor:middle;" transform="rotate(0, 282, 18)" x="282" y="18">#Jumps = 2000</text>
</g>
</svg>
